<svg xmlns="http://www.w3.org/2000/svg" viewBox="0 0 1200 630" role="img" aria-label="Audio Directory social preview">
  <rect width="1200" height="630" fill="#f4f2ea"/>
  <rect x="44" y="44" width="1112" height="542" fill="#fff" stroke="#14130f" stroke-width="3"/>
  <rect x="44" y="44" width="1112" height="74" fill="#14130f"/>
  <rect x="82" y="68" width="34" height="26" rx="2" fill="#d6451f"/>
  <text x="132" y="88" fill="#fff" font-family="Menlo, monospace" font-size="23" font-weight="700" letter-spacing="2">AUDIO DIRECTORY</text>
  <text x="82" y="220" fill="#14130f" font-family="Inter, Arial, sans-serif" font-size="76" font-weight="750">Audio employers</text>
  <text x="82" y="302" fill="#14130f" font-family="Inter, Arial, sans-serif" font-size="76" font-weight="750">and grad programs</text>
  <text x="86" y="378" fill="#5c5a52" font-family="Inter, Arial, sans-serif" font-size="28">For DSU Digital Sound Design students.</text>
  <g font-family="Menlo, monospace" font-size="22" font-weight="700">
    <rect x="82" y="452" width="184" height="54" rx="2" fill="#e9e7df"/>
    <text x="108" y="487" fill="#14130f">EMPLOYERS</text>
    <rect x="288" y="452" width="164" height="54" rx="2" fill="#f6e4dc" stroke="#ecccc0"/>
    <text x="315" y="487" fill="#d6451f">PROGRAMS</text>
  </g>
  <path d="M946 220c57 0 100 44 100 100s-43 100-100 100-100-44-100-100 43-100 100-100Zm0 33c-37 0-66 29-66 67s29 67 66 67 66-29 66-67-29-67-66-67Z" fill="#d6451f"/>
  <path d="M946 275c24 0 43 19 43 45s-19 45-43 45-43-19-43-45 19-45 43-45Z" fill="#14130f"/>
  <path d="M1068 188v264M1110 242v156M828 242v156M784 284v72" stroke="#14130f" stroke-width="16" stroke-linecap="square"/>
</svg>
